<svg width="64" height="64" viewBox="0 0 64 64" xmlns="http://www.w3.org/2000/svg">
  <path d="M8.516 3.364c0-.191.155-.346.346-.346h1.367c.191 0 .346.155.346.346v4.546c0 .191-.155.346-.346.346H8.862a.346.346 0 0 1-.346-.346V3.364zm3.136 6.278c.151-.05.296-.123.431-.215.134-.092.247-.193.34-.316.079-.105.147-.221.192-.336.035-.097.067-.201.093-.306.038-.158.072-.318.095-.477.015-.131.034-.262.047-.394.028-.292.048-.586.048-.88v-.887c0-.291-.03-.575-.085-.86-.048-.263-.132-.52-.241-.772-.097-.228-.21-.453-.34-.671-.227-.339-.487-.669-.783-.979-.311-.309-.652-.606-.987-.872-.362-.292-.759-.518-1.166-.698a2.765 2.765 0 0 0-1.371-.251c-.308.048-.613.162-.887.31a1.92 1.92 0 0 0-.596.553c-.107.166-.199.347-.251.53-.085.265-.137.537-.164.81-.023.315-.033.633-.033.953v4.648c0 .337.05.671.147.991.084.247.192.492.333.723.078.146.166.293.27.431.162.241.354.476.577.688.195.183.393.364.591.546.075.061.152.121.227.181.182.154.374.306.564.458.166.124.339.235.519.342.378.195.766.361 1.162.485.365.11.739.171 1.113.171.564 0 1.145-.082 1.621-.319.596-.29 1.144-.64 1.658-1.021zm-4.513 2.935c-.208.173-.43.329-.661.462-.232.132-.476.232-.735.308-.171.053-.343.081-.515.081-.387 0-.783-.108-1.118-.301a2.451 2.451 0 0 1-1.014-.776c-.207-.275-.372-.57-.486-.873-.065-.19-.119-.379-.156-.573-.042-.2-.057-.405-.057-.608v-3.09c0-.46.043-.921.12-1.36a2.618 2.618 0 0 1 .336-1.165c.201-.281.451-.552.727-.779.36-.237.762-.441 1.169-.558.35-.099.709-.142 1.08-.142.345 0 .696.042 1.037.12.282.069.569.184.824.283.267.105.533.248.775.409.088.063.174.131.26.187.25.16.486.342.713.537.209.179.405.373.568.594.117.156.221.326.28.51.062.19.103.381.103.578v3.553c0 .31-.027.621-.08.923-.074.414-.212.814-.411 1.194-.31.638-.772 1.203-1.339 1.708-.664.625-1.407 1.163-2.239 1.556a6.16 6.16 0 0 1-1.321.433c-.271.066-.548.093-.82.093-.32 0-.631-.037-.932-.092a3.134 3.134 0 0 1-1.001-.336zm15.608-2.542c.18.418.316.856.396 1.308.138.662.223 1.332.223 2.02v4.575c0 .392-.052.777-.134 1.158-.081.379-.184.759-.326 1.125a4.25 4.25 0 0 1-1.62 1.857c-.821.48-1.763.687-2.683.687-.339 0-.681-.045-1.016-.095a3.195 3.195 0 0 1-.89-.238 2.383 2.383 0 0 1-1.037-.739c-.075-.093-.155-.183-.232-.27-.3-.263-.591-.557-.866-.868-.44-.493-.835-1.033-1.143-1.62-.162-.302-.288-.626-.39-.958-.129-.345-.228-.692-.308-1.045-.08-.397-.113-.798-.113-1.198v-3.827c0-.6.035-1.206.12-1.798a6.027 6.027 0 0 1 .423-1.17c.188-.366.425-.732.701-1.065.212-.27.435-.533.665-.787.305-.318.595-.642.887-.975.361-.383.774-.686 1.205-.963a4.658 4.658 0 0 1 1.664-.55c.238-.044.471-.07.706-.07.398 0 .782.073 1.165.186.269.083.524.205.755.358.237.164.465.341.684.535.282.241.554.496.776.764.223.271.459.576.646.873zm-6.686-2.257c.342 0 .683.079 1.003.221.303.133.588.297.857.483a6.177 6.177 0 0 1 .799.697c.188.261.339.539.457.835.083.285.131.573.131.866v2.621c0 .274-.048.564-.117.832-.093.378-.219.75-.373 1.122-.193.422-.444.84-.715 1.248-.284.426-.611.834-.94 1.225-.443.444-.908.82-1.425 1.14-.586.309-1.214.563-1.862.68-.504.1-1.005.162-1.511.162-.363 0-.725-.028-1.075-.093-.319-.057-.642-.157-.944-.309-.43-.189-.836-.428-1.182-.718-.307-.256-.598-.547-.855-.851-.23-.283-.425-.592-.596-.901-.186-.325-.37-.648-.462-.998-.087-.332-.156-.675-.156-1.02v-2.592c0-.316.067-.628.177-.925.1-.269.223-.53.373-.788.168-.286.361-.558.578-.823.244-.286.477-.568.711-.857.326-.379.654-.758.963-1.144.233-.253.469-.508.688-.769.228-.278.438-.56.621-.862.156-.287.327-.566.453-.868.122-.296.231-.601.292-.914.065-.328.097-.657.097-.99v-2.618c0-.538-.106-1.072-.316-1.57a4.458 4.458 0 0 0-1.042-1.636 5.29 5.29 0 0 0-1.52-1.069 5.338 5.338 0 0 0-1.863-.347c-.431.085-.863.229-1.293.372-.462.16-.889.406-1.296.665-.281.175-.556.362-.785.578-.219.218-.438.442-.637.685-.22.281-.396.58-.54.888-.093.214-.161.433-.203.65-.044.207-.065.419-.065.623v2.572c0 .491.084.975.263 1.434.175.43.394.839.641 1.231.243.379.524.755.835 1.095.226.268.458.527.715.777.319.319.665.634 1.032.9.5.305 1.026.564 1.554.82.54.261 1.111.447 1.698.626.572.165 1.142.292 1.721.292.258 0 .515-.015.767-.04.291-.027.577-.108.857-.21.396-.135.767-.336 1.1-.53.291-.156.556-.336.831-.48.353-.168.713-.291 1.07-.416.309-.121.613-.272.904-.437.291-.172.567-.36.83-.54.281-.172.558-.375.803-.558.23-.15.462-.313.684-.485.272-.231.541-.483.788-.752.249-.263.484-.545.687-.848.143-.285.272-.577.356-.876.094-.297.172-.602.172-.912v-2.118c0-.223-.023-.451-.065-.674-.05-.258-.131-.517-.227-.772-.161-.421-.337-.835-.526-1.237-.167-.336-.36-.64-.575-.943-.189-.266-.393-.514-.617-.761-.202-.231-.398-.468-.603-.701-.281-.28-.569-.568-.873-.822-.302-.251-.626-.506-.945-.759-.348-.271-.691-.573-1.041-.782a3.874 3.874 0 0 0-1.053-.288c-.427 0-.849.094-1.245.219-.421.12-.817.332-1.2.556-.407.25-.819.502-1.232.727-.368.169-.759.273-1.143.273-.243 0-.487-.046-.717-.126a3.237 3.237 0 0 1-1.172-.748c-.383-.337-.759-.734-1.089-1.127-.342-.418-.633-.858-.903-1.31-.274-.445-.522-.894-.707-1.362-.213-.482-.348-.982-.348-1.488v-2.618c0-.35.025-.693.062-1.037.061-.569.229-1.1.527-1.578.371-.571.767-1.137 1.18-1.683.293-.403.598-.805.888-1.209.36-.39.724-.779 1.125-1.115.527-.353 1.102-.629 1.663-.918.551-.278 1.105-.562 1.697-.693.536-.113 1.079-.197 1.627-.197z" fill="#000"/>
</svg>
